<svg width="84" height="28" viewBox="0 0 84 28" fill="none" xmlns="http://www.w3.org/2000/svg">
<path d="M77.3087 0H5.27761C4.80713 0.00721189 4.33784 0.0493282 3.87363 0.126C3.40951 0.20598 2.95996 0.354619 2.53986 0.567C2.11852 0.782185 1.73456 1.06343 1.40263 1.4C1.06541 1.72962 0.785481 2.11284 0.574286 2.534C0.361302 2.95291 0.212241 3.40119 0.132033 3.864C0.0536945 4.3266 0.0137797 4.79485 0.0126953 5.264C0.0126953 5.481 0.0126953 5.698 0.0126953 5.908V22.092C0.0126953 22.309 0.0126953 22.519 0.0126953 22.736C0.0137797 23.2051 0.0536945 23.6734 0.132033 24.136C0.212177 24.6011 0.361224 25.0517 0.574286 25.473C0.78744 25.8909 1.06719 26.2715 1.40263 26.6C1.73319 26.9363 2.1175 27.2154 2.53986 27.426C2.95996 27.6384 3.40951 27.787 3.87363 27.867C4.33784 27.9437 4.80713 27.9858 5.27761 27.993H78.7197C79.1902 27.9861 79.6595 27.944 80.1237 27.867C80.5898 27.786 81.0415 27.6374 81.4645 27.426C81.8857 27.2136 82.2697 26.9346 82.6017 26.6C82.9329 26.2678 83.2121 25.8879 83.43 25.473C83.6377 25.0501 83.7843 24.5999 83.8653 24.136C83.9425 23.6731 83.9847 23.2052 83.9916 22.736C83.9916 22.519 83.9916 22.309 83.9916 22.092V5.908C83.9916 5.698 83.9916 5.481 83.9916 5.264C83.9847 4.79484 83.9425 4.32685 83.8653 3.864C83.7843 3.40231 83.6377 2.95447 83.43 2.534C83.214 2.11581 82.9346 1.73332 82.6017 1.4C82.2679 1.06744 81.8843 0.78876 81.4645 0.574C81.0415 0.362582 80.5898 0.214009 80.1237 0.133C79.6595 0.0560171 79.1902 0.0138987 78.7197 0.007H77.3157L77.3087 0Z" fill="#B7B7B7"/>
<path d="M5.92483 27.391H5.29304C4.85372 27.3963 4.41469 27.3659 3.98032 27.3C3.57052 27.2199 3.17526 27.0783 2.808 26.88C2.44592 26.7025 2.11613 26.4659 1.83224 26.18C1.54519 25.8946 1.30794 25.5634 1.13025 25.2C0.943295 24.8344 0.813113 24.4426 0.744154 24.038C0.672784 23.6053 0.635232 23.1676 0.631836 22.729C0.631836 22.582 0.631836 22.085 0.631836 22.085V5.90805C0.631836 5.90805 0.631836 5.42505 0.631836 5.28505C0.634947 4.84646 0.672501 4.40879 0.744154 3.97605C0.808414 3.56677 0.936309 3.17 1.12323 2.80005C1.29941 2.43582 1.53683 2.10436 1.82522 1.82005C2.11411 1.53693 2.44573 1.30073 2.808 1.12005C3.17465 0.933624 3.56756 0.80381 3.9733 0.735047C4.40962 0.663517 4.85088 0.62607 5.29304 0.623047H78.7141C79.1515 0.626738 79.5881 0.664184 80.0198 0.735047C80.4274 0.80528 80.8224 0.935006 81.1921 1.12005C81.9201 1.48735 82.5125 2.07558 82.8839 2.80005C83.0665 3.16438 83.1942 3.55356 83.2629 3.95505C83.3331 4.39045 83.3729 4.83016 83.3823 5.27105V5.89405C83.3823 6.16005 83.3823 6.41205 83.3823 6.66405V21.322C83.3823 21.581 83.3823 21.826 83.3823 22.078V22.729C83.3732 23.163 83.3334 23.5957 83.2629 24.024C83.1963 24.4305 83.0685 24.8246 82.8839 25.193C82.7031 25.5524 82.4661 25.8809 82.1819 26.166C81.8956 26.4523 81.5635 26.6889 81.1991 26.866C80.8341 27.0723 80.4383 27.2188 80.0268 27.3C79.593 27.3729 79.154 27.4104 78.7141 27.412H78.0823H5.92483V27.391Z" fill="black"/>
<path d="M17.389 14.2094C17.3952 13.6247 17.5505 13.0513 17.8404 12.5431C18.1302 12.0348 18.545 11.6086 19.0457 11.3044C18.7276 10.8522 18.3082 10.4801 17.8208 10.2177C17.3334 9.95525 16.7914 9.80963 16.2378 9.79237C15.0655 9.66637 13.9212 10.4924 13.3175 10.4924C12.7138 10.4924 11.7801 9.79237 10.7833 9.79237C10.1392 9.81327 9.51161 10.0003 8.96165 10.3352C8.41169 10.6702 7.9582 11.1415 7.64543 11.7034C6.31867 14.0764 7.30146 17.4994 8.60014 19.4174C9.25299 20.3484 10.0041 21.3844 11.008 21.3424C12.0118 21.3004 12.3417 20.7264 13.5211 20.7264C14.7004 20.7264 15.0233 21.3424 16.0412 21.3214C17.0591 21.3004 17.7471 20.3904 18.3718 19.4524C18.8383 18.7912 19.1983 18.0614 19.4388 17.2894C18.831 17.0343 18.3122 16.606 17.9475 16.058C17.5829 15.5101 17.3886 14.867 17.389 14.2094Z" fill="white"/>
<path d="M15.4443 8.54749C16.0116 7.86455 16.2909 6.98873 16.2235 6.10449C15.3534 6.19814 14.5497 6.61256 13.9701 7.26649C13.4021 7.9142 13.1144 8.75984 13.1698 9.61849C13.6054 9.62277 14.0364 9.52864 14.4303 9.34316C14.8242 9.15767 15.1709 8.88565 15.4443 8.54749V8.54749Z" fill="white"/>
<path d="M29.6946 18.9982H26.3742L25.5739 21.3502H24.1699L27.3148 12.6562H28.782L31.9269 21.3502H30.5229L29.6946 18.9982ZM26.7181 17.9133H29.3506L28.08 14.0982H28.0449L26.7181 17.9133Z" fill="white"/>
<path d="M38.7223 18.1997C38.7223 20.1667 37.6623 21.4337 36.0688 21.4337C35.6622 21.4509 35.259 21.3536 34.9052 21.1531C34.5515 20.9526 34.2614 20.6569 34.0682 20.2997V20.2997V23.4357H32.7344V15.0357H33.998V16.0997C34.2031 15.7478 34.5001 15.4578 34.8573 15.2606C35.2145 15.0634 35.6186 14.9663 36.0267 14.9797C37.6623 14.9447 38.7223 16.2117 38.7223 18.1997ZM37.3815 18.1997C37.3815 16.9187 36.6796 16.0997 35.7038 16.0997C34.728 16.0997 34.0331 16.9607 34.0331 18.1997C34.0331 19.4387 34.735 20.3347 35.7038 20.3347C36.6725 20.3347 37.3815 19.4737 37.3815 18.1997Z" fill="white"/>
<path d="M45.7134 18.1995C45.7134 20.1665 44.6604 21.4335 43.0669 21.4335C42.6602 21.4515 42.2566 21.3546 41.9027 21.154C41.5487 20.9534 41.2588 20.6572 41.0662 20.2995V23.4355H39.7324V15.0355H40.996V16.0995C41.2006 15.7486 41.4965 15.4593 41.8523 15.2622C42.2082 15.065 42.6108 14.9674 43.0177 14.9795C44.6534 14.9445 45.7134 16.2115 45.7134 18.1995ZM44.3726 18.1995C44.3726 16.9185 43.7127 16.0995 42.6948 16.0995C41.6769 16.0995 41.0311 16.9605 41.0311 18.1995C41.0311 19.4385 41.698 20.2995 42.6948 20.2995C43.6916 20.2995 44.3726 19.4735 44.3726 18.1995V18.1995Z" fill="white"/>
<path d="M50.3406 18.9001C50.4389 19.7611 51.2743 20.3001 52.4466 20.3001C53.6189 20.3001 54.3349 19.7331 54.3349 18.9561C54.3349 18.1791 53.8576 17.8781 52.7274 17.5981L51.5972 17.3251C49.9966 16.9401 49.2596 16.1981 49.2596 14.9871C49.2596 13.4821 50.5653 12.4531 52.4255 12.4531C54.2858 12.4531 55.5353 13.4821 55.5775 14.9871H54.2367C54.1594 14.1191 53.4364 13.5871 52.3904 13.5871C51.3445 13.5871 50.6214 14.1121 50.6214 14.8891C50.6214 15.4981 51.0777 15.8621 52.2009 16.1421L53.1626 16.3731C54.9527 16.7931 55.6968 17.5141 55.6968 18.7811C55.6968 20.4121 54.3911 21.4271 52.3272 21.4271C50.3968 21.4271 49.0911 20.4331 49.0068 18.8651L50.3406 18.9001Z" fill="white"/>
<path d="M58.5108 13.5098V15.0078H59.7182V16.0368H58.5108V19.5368C58.5108 20.0758 58.7495 20.3278 59.283 20.3278C59.4256 20.3365 59.5686 20.3365 59.7112 20.3278V21.3498C59.4798 21.3933 59.2447 21.4143 59.0092 21.4128C57.7176 21.4128 57.2192 20.9298 57.2192 19.6978V16.0368H56.2715V15.0078H57.1981V13.5098H58.5108Z" fill="white"/>
<path d="M60.4141 18.2001C60.4141 16.2051 61.5934 14.9521 63.4326 14.9521C65.2718 14.9521 66.4442 16.2051 66.4442 18.2001C66.4442 20.1951 65.2859 21.4271 63.4326 21.4271C61.5794 21.4271 60.4141 20.1811 60.4141 18.2001ZM65.1174 18.2001C65.1174 16.8351 64.4856 16.0231 63.4326 16.0231C62.3796 16.0231 61.7759 16.8001 61.7759 18.2001C61.7759 19.6001 62.4007 20.3771 63.4607 20.3771C64.5207 20.3771 65.1174 19.5511 65.1174 18.2001Z" fill="white"/>
<path d="M67.5244 15.0082H68.795V16.1002C68.8801 15.7638 69.0786 15.4668 69.3573 15.2591C69.6359 15.0513 69.9777 14.9454 70.3253 14.9592C70.4766 14.9568 70.6275 14.9732 70.7746 15.0082V16.2262C70.5918 16.1504 70.3969 16.1077 70.199 16.1002C70.0029 16.0859 69.8062 16.1154 69.623 16.1866C69.4399 16.2578 69.275 16.369 69.1405 16.5119C69.0059 16.6548 68.9051 16.8258 68.8453 17.0126C68.7855 17.1993 68.7683 17.397 68.795 17.5912V21.3502H67.5244V15.0082Z" fill="white"/>
<path d="M76.7839 19.4877C76.6084 20.6357 75.4852 21.4267 74.0532 21.4267C72.1999 21.4267 71.0557 20.1877 71.0557 18.2067C71.0557 16.2257 72.2069 14.9307 73.997 14.9307C75.7871 14.9307 76.8611 16.1347 76.8611 18.0597V18.5007H72.3684V18.5847C72.3483 18.8179 72.3782 19.0527 72.456 19.2735C72.5338 19.4943 72.6578 19.6962 72.8198 19.8656C72.9817 20.035 73.178 20.1682 73.3954 20.2563C73.6129 20.3444 73.8467 20.3855 74.0812 20.3767C74.3891 20.4053 74.6981 20.3343 74.9623 20.1742C75.2266 20.0141 75.4321 19.7734 75.5484 19.4877H76.7839ZM72.3754 17.5907H75.5554C75.5671 17.3813 75.5352 17.1717 75.4617 16.9752C75.3881 16.7787 75.2746 16.5995 75.1282 16.4489C74.9818 16.2983 74.8057 16.1796 74.611 16.1002C74.4163 16.0208 74.2073 15.9825 73.997 15.9877C73.785 15.9867 73.5748 16.0275 73.3786 16.1075C73.1823 16.1876 73.0038 16.3054 72.8533 16.4543C72.7027 16.6031 72.583 16.7801 72.501 16.9751C72.419 17.1701 72.3763 17.3792 72.3754 17.5907Z" fill="white"/>
<path d="M26.5563 6.11102C26.8318 6.09166 27.108 6.13392 27.365 6.2347C27.6219 6.33549 27.853 6.49224 28.0414 6.69352C28.2298 6.8948 28.3707 7.13551 28.4539 7.39806C28.537 7.66061 28.5602 7.93836 28.5219 8.21102C28.5219 9.54102 27.8199 10.311 26.5563 10.311H25.04V6.11102H26.5563ZM25.6929 9.69502H26.4791C26.6762 9.71088 26.8743 9.68216 27.0586 9.611C27.243 9.53984 27.4088 9.42808 27.5438 9.28405C27.6788 9.14003 27.7794 8.96746 27.8382 8.77924C27.8969 8.59101 27.9123 8.39199 27.8831 8.19702C27.9109 8.00228 27.8946 7.8038 27.8354 7.61618C27.7761 7.42856 27.6754 7.25657 27.5407 7.11286C27.4061 6.96914 27.2408 6.85737 27.057 6.78575C26.8733 6.71413 26.6758 6.6845 26.4791 6.69902H25.6929V9.69502Z" fill="white"/>
<path d="M29.2594 8.70834C29.2453 8.50441 29.2735 8.29979 29.3421 8.10718C29.4107 7.91457 29.5183 7.73808 29.6582 7.58868C29.7981 7.43928 29.9673 7.32015 30.1553 7.23871C30.3433 7.15726 30.5461 7.11523 30.7511 7.11523C30.9561 7.11523 31.1589 7.15726 31.3469 7.23871C31.5349 7.32015 31.7041 7.43928 31.844 7.58868C31.9839 7.73808 32.0915 7.91457 32.1601 8.10718C32.2287 8.29979 32.2569 8.50441 32.2428 8.70834C32.2569 8.91226 32.2287 9.11688 32.1601 9.30949C32.0915 9.50211 31.9839 9.67859 31.844 9.82799C31.7041 9.9774 31.5349 10.0965 31.3469 10.178C31.1589 10.2594 30.9561 10.3014 30.7511 10.3014C30.5461 10.3014 30.3433 10.2594 30.1553 10.178C29.9673 10.0965 29.7981 9.9774 29.6582 9.82799C29.5183 9.67859 29.4107 9.50211 29.3421 9.30949C29.2735 9.11688 29.2453 8.91226 29.2594 8.70834ZM31.597 8.70834C31.597 8.00834 31.2951 7.63034 30.7546 7.63034C30.2141 7.63034 29.9052 8.02934 29.9052 8.70834C29.9052 9.38733 30.186 9.80033 30.7546 9.80033C31.3232 9.80033 31.59 9.39433 31.59 8.70834H31.597Z" fill="white"/>
<path d="M36.2014 10.2898H35.5555L34.9027 7.96581H34.8535L34.2007 10.2898H33.5619L32.6914 7.13281H33.3232L33.8918 9.54081H33.9339L34.5868 7.13281H35.1835L35.8363 9.54081H35.8855L36.4471 7.13281H37.0718L36.2014 10.2898Z" fill="white"/>
<path d="M37.8023 7.13291H38.406V7.63691H38.4552C38.5328 7.45664 38.6655 7.30543 38.8345 7.20487C39.0034 7.1043 39.1999 7.05952 39.3958 7.07691C39.5495 7.06471 39.704 7.08725 39.8478 7.14285C39.9915 7.19845 40.1209 7.28568 40.2261 7.39804C40.3314 7.5104 40.4099 7.64499 40.4557 7.79179C40.5016 7.9386 40.5136 8.09382 40.4909 8.24591V10.2899H39.8662V8.39991C39.8662 7.88891 39.6415 7.63691 39.1642 7.63691C39.0585 7.62734 38.952 7.64178 38.8528 7.67914C38.7535 7.7165 38.664 7.77582 38.5911 7.85262C38.5181 7.92942 38.4635 8.02172 38.4315 8.12257C38.3994 8.22343 38.3907 8.33022 38.406 8.43491V10.2899H37.7812L37.8023 7.13291Z" fill="white"/>
<path d="M41.4805 5.9082H42.1193V10.2902H41.4945L41.4805 5.9082Z" fill="white"/>
<path d="M42.9762 8.70834C42.9621 8.50441 42.9903 8.29979 43.0589 8.10718C43.1275 7.91457 43.2351 7.73808 43.375 7.58868C43.5149 7.43928 43.6841 7.32015 43.8721 7.23871C44.0601 7.15726 44.2629 7.11523 44.4679 7.11523C44.6729 7.11523 44.8757 7.15726 45.0637 7.23871C45.2517 7.32015 45.4209 7.43928 45.5608 7.58868C45.7007 7.73808 45.8083 7.91457 45.8769 8.10718C45.9455 8.29979 45.9737 8.50441 45.9596 8.70834C45.9737 8.91226 45.9455 9.11688 45.8769 9.30949C45.8083 9.50211 45.7007 9.67859 45.5608 9.82799C45.4209 9.9774 45.2517 10.0965 45.0637 10.178C44.8757 10.2594 44.6729 10.3014 44.4679 10.3014C44.2629 10.3014 44.0601 10.2594 43.8721 10.178C43.6841 10.0965 43.5149 9.9774 43.375 9.82799C43.2351 9.67859 43.1275 9.50211 43.0589 9.30949C42.9903 9.11688 42.9621 8.91226 42.9762 8.70834V8.70834ZM45.3138 8.70834C45.3138 8.00834 45.0049 7.63034 44.4644 7.63034C43.9239 7.63034 43.622 8.02934 43.622 8.70834C43.622 9.38733 43.9239 9.80033 44.4644 9.80033C45.0049 9.80033 45.3138 9.39433 45.3138 8.70834Z" fill="white"/>
<path d="M46.6123 9.39431C46.6123 8.82731 47.0335 8.50531 47.7916 8.45631L48.6481 8.40031V8.12731C48.6481 7.79831 48.4234 7.60931 47.9952 7.60931C47.567 7.60931 47.4056 7.73531 47.3424 7.95931H46.7316C46.8018 7.41331 47.3073 7.07031 48.0233 7.07031C48.7393 7.07031 49.2658 7.46231 49.2658 8.12731V10.2903H48.6621V9.84231H48.613C48.5146 10.0026 48.3746 10.1334 48.2077 10.2209C48.0409 10.3084 47.8535 10.3493 47.6653 10.3393C47.5325 10.353 47.3983 10.3388 47.2714 10.2976C47.1444 10.2563 47.0276 10.189 46.9283 10.1C46.8291 10.0109 46.7497 9.90212 46.6953 9.78057C46.6408 9.65902 46.6126 9.52743 46.6123 9.39431ZM48.6481 9.10031V8.83431L47.8759 8.88331C47.4406 8.88331 47.2371 9.06531 47.2371 9.33831C47.2371 9.61131 47.4898 9.78631 47.8267 9.78631C47.9262 9.7969 48.0267 9.7874 48.1224 9.75837C48.2181 9.72933 48.3069 9.68137 48.3836 9.61733C48.4602 9.5533 48.5232 9.47451 48.5686 9.38568C48.6141 9.29685 48.6411 9.19979 48.6481 9.10031V9.10031Z" fill="white"/>
<path d="M50.0869 8.7082C50.0869 7.7142 50.5994 7.0842 51.3996 7.0842C51.597 7.07575 51.7927 7.1232 51.9642 7.22107C52.1356 7.31893 52.2758 7.46321 52.3684 7.6372H52.4105V5.9082H53.0353V10.2902H52.4386V9.8002H52.3894C52.2899 9.97242 52.1451 10.1143 51.9707 10.2105C51.7963 10.3067 51.5988 10.3536 51.3996 10.3462C50.5923 10.3392 50.0869 9.7092 50.0869 8.7082ZM50.7327 8.7082C50.7327 9.4082 51.0486 9.7792 51.5751 9.7792C52.1016 9.7792 52.4245 9.3732 52.4245 8.7152C52.4245 8.0572 52.0946 7.6442 51.5751 7.6442C51.0557 7.6442 50.7327 8.0502 50.7327 8.7082Z" fill="white"/>
<path d="M55.6187 8.70834C55.6047 8.50441 55.6329 8.29979 55.7015 8.10718C55.7701 7.91457 55.8777 7.73808 56.0176 7.58868C56.1575 7.43928 56.3267 7.32015 56.5147 7.23871C56.7027 7.15726 56.9055 7.11523 57.1105 7.11523C57.3155 7.11523 57.5182 7.15726 57.7063 7.23871C57.8943 7.32015 58.0635 7.43928 58.2034 7.58868C58.3433 7.73808 58.4509 7.91457 58.5195 8.10718C58.5881 8.29979 58.6162 8.50441 58.6022 8.70834C58.6162 8.91226 58.5881 9.11688 58.5195 9.30949C58.4509 9.50211 58.3433 9.67859 58.2034 9.82799C58.0635 9.9774 57.8943 10.0965 57.7063 10.178C57.5182 10.2594 57.3155 10.3014 57.1105 10.3014C56.9055 10.3014 56.7027 10.2594 56.5147 10.178C56.3267 10.0965 56.1575 9.9774 56.0176 9.82799C55.8777 9.67859 55.7701 9.50211 55.7015 9.30949C55.6329 9.11688 55.6047 8.91226 55.6187 8.70834ZM57.9564 8.70834C57.9564 8.00834 57.6475 7.63034 57.114 7.63034C56.5805 7.63034 56.2646 8.02934 56.2646 8.70834C56.2646 9.38733 56.5664 9.80033 57.114 9.80033C57.6615 9.80033 57.9564 9.39433 57.9564 8.70834Z" fill="white"/>
<path d="M59.4379 7.13326H60.0346V7.63726H60.0837C60.1643 7.45773 60.2987 7.3075 60.4684 7.20722C60.6381 7.10694 60.8348 7.06154 61.0314 7.07726C61.1845 7.06618 61.3382 7.08954 61.4811 7.14563C61.624 7.20172 61.7524 7.28911 61.8568 7.40133C61.9613 7.51355 62.0391 7.64775 62.0846 7.79399C62.13 7.94024 62.1419 8.0948 62.1195 8.24626V10.2903H61.5017V8.40026C61.5017 7.88926 61.2771 7.63726 60.7997 7.63726C60.6946 7.62882 60.589 7.64409 60.4906 7.68195C60.3922 7.71981 60.3037 7.77928 60.2315 7.85595C60.1593 7.93261 60.1054 8.0245 60.0738 8.12479C60.0421 8.22509 60.0335 8.3312 60.0486 8.43526V10.2903H59.4238L59.4379 7.13326Z" fill="white"/>
<path d="M65.6497 6.34863V7.15363H66.3517V7.69963H65.6497V9.32363C65.6497 9.65263 65.7831 9.79963 66.092 9.79963H66.3307V10.3176C66.2185 10.3254 66.1059 10.3254 65.9937 10.3176C65.2917 10.3176 65.025 10.0796 65.025 9.47063V7.69963H64.5195V7.18163H65.025V6.34863H65.6497Z" fill="white"/>
<path d="M67.1807 5.9082H67.8054V7.6442H67.8546C67.9345 7.46518 68.0675 7.31487 68.2357 7.21349C68.4038 7.11212 68.5991 7.06456 68.7952 7.0772C68.9484 7.06853 69.1016 7.09379 69.2438 7.15116C69.386 7.20853 69.5137 7.2966 69.6177 7.40903C69.7218 7.52146 69.7995 7.65546 69.8454 7.80142C69.8914 7.94738 69.9043 8.10167 69.8833 8.2532V10.2902H69.2586V8.4002C69.2586 7.8962 69.0269 7.6442 68.5566 7.6442C68.4493 7.63578 68.3415 7.65064 68.2406 7.68776C68.1397 7.72488 68.048 7.78338 67.9719 7.85924C67.8959 7.93509 67.8372 8.02648 67.8 8.12713C67.7627 8.22777 67.7478 8.33526 67.7563 8.4422V10.2902H67.1807V5.9082Z" fill="white"/>
<path d="M73.5407 9.4362C73.4558 9.73101 73.267 9.98536 73.0091 10.1525C72.7512 10.3197 72.4414 10.3885 72.1368 10.3462C71.9272 10.3573 71.7178 10.3214 71.524 10.2412C71.3302 10.161 71.1569 10.0385 71.0168 9.88274C70.8767 9.72694 70.7735 9.54182 70.7146 9.34098C70.6557 9.14014 70.6427 8.9287 70.6766 8.7222C70.6495 8.51575 70.6671 8.30591 70.7282 8.10683C70.7894 7.90774 70.8926 7.72405 71.031 7.56814C71.1694 7.41223 71.3397 7.28773 71.5305 7.20304C71.7212 7.11835 71.928 7.07544 72.1368 7.0772C73.0142 7.0772 73.5407 7.6722 73.5407 8.6662V8.8832H71.3154V8.9182C71.3073 9.03491 71.3241 9.15202 71.3648 9.26176C71.4055 9.37149 71.4691 9.47136 71.5514 9.55475C71.6337 9.63814 71.7328 9.70314 71.8422 9.74546C71.9516 9.78777 72.0687 9.80643 72.1859 9.8002C72.3362 9.81712 72.4882 9.78965 72.6229 9.72121C72.7577 9.65277 72.8694 9.54636 72.944 9.4152L73.5407 9.4362ZM71.3505 8.4002H72.944C72.9519 8.2942 72.9374 8.18774 72.9016 8.08764C72.8658 7.98753 72.8094 7.89599 72.7361 7.81889C72.6627 7.74178 72.574 7.68081 72.4756 7.63988C72.3773 7.59895 72.2714 7.57896 72.1648 7.5812C72.057 7.58025 71.9501 7.60084 71.8505 7.64175C71.7508 7.68266 71.6603 7.74306 71.5844 7.8194C71.5085 7.89573 71.4487 7.98645 71.4085 8.0862C71.3684 8.18596 71.3486 8.29272 71.3505 8.4002V8.4002Z" fill="white"/>
</svg>
