<?xml version="1.0" encoding="UTF-8"?>
<svg version="1.1" xmlns="http://www.w3.org/2000/svg" width="428" height="201">
<path d="M0 0 C1.25103516 -0.03287109 1.25103516 -0.03287109 2.52734375 -0.06640625 C6.30780587 0.87142796 7.64186272 2.52118649 10.0625 5.5625 C11.66087617 8.663357 12.90245727 11.86042125 14.125 15.125 C14.63933594 16.4538623 14.63933594 16.4538623 15.1640625 17.80957031 C17.66401428 24.3279807 20.00141251 30.89108523 22.0625 37.5625 C26.29900845 37.00997947 29.62679967 36.03236233 33.44140625 34.12109375 C34.43954346 33.62327393 35.43768066 33.1254541 36.46606445 32.61254883 C37.50851318 32.08040771 38.55096191 31.5482666 39.625 31 C40.69387451 30.46076904 41.76274902 29.92153809 42.86401367 29.3659668 C49.71204755 25.87302738 56.33093105 22.18510162 62.76953125 17.98828125 C66.03951623 15.95498565 68.71711843 15.38905072 72.5 15.3125 C73.64275391 15.27382813 73.64275391 15.27382813 74.80859375 15.234375 C77.72621178 15.65912355 79.01679758 16.44357333 81.0625 18.5625 C82.34419858 24.39611338 81.51362167 30.33802398 78.50390625 35.4765625 C69.13924978 49.02866699 57.7585316 58.40411041 43.0625 65.5625 C45.581513 68.13231663 47.96845005 70.49353003 50.875 72.625 C54.24539715 77.15096188 53.83042278 82.09003978 53.0625 87.5625 C52.4025 88.2225 51.7425 88.8825 51.0625 89.5625 C50.0725 89.5625 49.0825 89.5625 48.0625 89.5625 C48.3925 90.5525 48.7225 91.5425 49.0625 92.5625 C49.90518136 103.83508997 48.1978091 112.50007001 43.0625 122.5625 C44.25875 122.52125 45.455 122.48 46.6875 122.4375 C50.49022122 122.43074561 53.52087205 123.09402012 57.0625 124.5625 C58.92015668 126.42015668 58.32192629 129.32082889 58.375 131.8125 C58.41238281 132.95203125 58.44976562 134.0915625 58.48828125 135.265625 C57.97265799 139.25815741 56.87881965 140.7364353 54.0625 143.5625 C43.79417123 151.42921228 31.01528031 155.71659136 18.1875 155.8125 C17.16462891 155.8434375 17.16462891 155.8434375 16.12109375 155.875 C11.04292594 155.9136908 7.54202384 155.00587664 3.0625 152.5625 C0.24461601 149.75052353 -0.46212742 147.18775506 -1.125 143.3125 C-1.36283203 141.97445312 -1.36283203 141.97445312 -1.60546875 140.609375 C-1.71503906 139.93390625 -1.82460938 139.2584375 -1.9375 138.5625 C-2.494375 139.03300781 -3.05125 139.50351563 -3.625 139.98828125 C-13.69418893 148.20351478 -22.10652029 149.74631063 -34.9375 148.5625 C-39.55708243 147.35665312 -43.53200651 145.96799349 -46.9375 142.5625 C-49.00468584 142.50967275 -49.00468584 142.50967275 -50.9375 143.5625 C-52.11731952 145.74086031 -52.11731952 145.74086031 -52.875 148.375 C-55.12615024 154.47657323 -57.64176643 156.41463321 -63.4375 159.3125 C-69.12239608 161.26160723 -75.02007961 161.3551518 -80.9375 160.5625 C-84.25 158.75 -84.25 158.75 -85.9375 155.5625 C-86.31243047 151.85485425 -86.2299532 148.27340614 -85.9375 144.5625 C-86.54078125 144.91183594 -87.1440625 145.26117188 -87.765625 145.62109375 C-88.56484375 146.07613281 -89.3640625 146.53117188 -90.1875 147 C-90.97640625 147.45246094 -91.7653125 147.90492188 -92.578125 148.37109375 C-99.10376465 151.66632569 -107.42809015 151.57467404 -114.4609375 149.99609375 C-117.18211177 149.03002631 -119.43158454 148.11846592 -121.3984375 145.95703125 C-123.08538362 144.11486341 -123.08538362 144.11486341 -126.9375 144.5625 C-126.9375 145.408125 -126.9375 146.25375 -126.9375 147.125 C-128.42860551 152.2506752 -131.76651334 154.44181614 -135.9375 157.5625 C-137.484375 158.7690625 -137.484375 158.7690625 -139.0625 160 C-144.34421631 162.86195325 -151.14624611 162.18818823 -156.9375 161.5625 C-159.9375 159.5625 -159.9375 159.5625 -160.66796875 157.3984375 C-160.81878906 156.58632812 -160.96960938 155.77421875 -161.125 154.9375 C-161.28355469 154.12023437 -161.44210938 153.30296875 -161.60546875 152.4609375 C-161.71503906 151.83445313 -161.82460937 151.20796875 -161.9375 150.5625 C-163.4225 151.39394531 -163.4225 151.39394531 -164.9375 152.2421875 C-166.2705703 152.97443739 -167.60391867 153.70618121 -168.9375 154.4375 C-169.58589844 154.80230469 -170.23429688 155.16710937 -170.90234375 155.54296875 C-178.07581125 159.44931244 -184.79651916 160.94214211 -192.9375 160.875 C-193.98514526 160.86871582 -193.98514526 160.86871582 -195.05395508 160.86230469 C-201.70973473 160.71617756 -205.89884905 159.32915753 -211.625 156 C-214.56339852 152.90276913 -216.08349375 149.57971913 -217.82421875 145.70703125 C-218.74901057 143.41183441 -218.74901057 143.41183441 -220.9375 142.5625 C-221.03546875 143.4803125 -221.1334375 144.398125 -221.234375 145.34375 C-222.28412133 153.95890952 -223.23741113 160.66766961 -229.3125 167.0625 C-235.75129264 169.72682799 -243.36230909 169.86129982 -249.9375 167.47265625 C-257.33514883 162.76243453 -261.62544719 156.44374026 -265.8125 148.875 C-266.32135742 147.97177002 -266.83021484 147.06854004 -267.35449219 146.13793945 C-272.47904735 136.87956577 -276.79841924 127.29352067 -280.9375 117.5625 C-281.1334375 118.30886719 -281.329375 119.05523437 -281.53125 119.82421875 C-282.40999098 123.14601117 -283.29931643 126.46475297 -284.19238281 129.78271484 C-284.73670662 131.8134065 -285.27719151 133.84512827 -285.81542969 135.87744141 C-296.37130424 175.66372698 -296.37130424 175.66372698 -302.9375 180.5625 C-308.6271056 181.61613067 -314.13033152 181.71908782 -319.0625 178.5625 C-322.78994488 172.59858819 -324.54569257 166.69372558 -324.5625 159.625 C-324.56483643 158.83996094 -324.56717285 158.05492187 -324.56958008 157.24609375 C-324.2287255 145.10668804 -320.89250354 133.1690927 -318.21829224 121.3742218 C-316.9729606 115.83805813 -315.9227965 110.29553219 -315.0625 104.6875 C-314.95510498 104.00107422 -314.84770996 103.31464844 -314.73706055 102.60742188 C-314.43975014 100.59516534 -314.18159057 98.58188095 -313.9375 96.5625 C-313.84106201 95.82443115 -313.74462402 95.0863623 -313.64526367 94.32592773 C-312.46484427 83.82070605 -312.90384789 73.20402763 -313.03344727 62.65161133 C-313.0638094 60.00341136 -313.08145815 57.35535054 -313.09765625 54.70703125 C-313.11111588 53.90787796 -313.1245755 53.10872467 -313.13844299 52.28535461 C-313.16876743 45.42195437 -312.60686205 38.27060514 -307.76171875 32.9453125 C-300.85887769 27.71275204 -291.94506749 25.43537131 -283.4375 25.25 C-282.3134375 25.21261719 -281.189375 25.17523438 -280.03125 25.13671875 C-276.09046209 25.67907466 -275.37175058 26.43714575 -272.9375 29.5625 C-271.69484188 32.58490952 -270.86411088 35.69417678 -270.01953125 38.84765625 C-269.76079727 39.76862595 -269.50206329 40.68959564 -269.23548889 41.63847351 C-268.68248456 43.61002945 -268.13514509 45.58318154 -267.59295654 47.55773926 C-266.18291076 52.68846409 -264.72981912 57.80693497 -263.27734375 62.92578125 C-262.99191711 63.93462372 -262.70649048 64.94346619 -262.41241455 65.98287964 C-259.24322988 77.11938046 -255.62165234 88.07748564 -251.81933594 99.01367188 C-250.49132777 102.8521008 -249.21475921 106.7069225 -247.9375 110.5625 C-247.2775 110.5625 -246.6175 110.5625 -245.9375 110.5625 C-245.88706543 109.73782227 -245.83663086 108.91314453 -245.78466797 108.06347656 C-245.10830374 97.44556334 -244.24603124 86.84724007 -243.31787109 76.24853516 C-243.14826861 74.29859297 -242.98157915 72.34839512 -242.81787109 70.39794922 C-241.9664776 60.2580063 -241.00668085 50.16169268 -239.45703125 40.1015625 C-239.34267731 39.34486267 -239.22832336 38.58816284 -239.11050415 37.80853271 C-237.57718258 28.39676368 -234.82382732 18.40003848 -227.18359375 12.12109375 C-217.61303202 6.18858572 -208.3092879 3.17333273 -196.9375 4.5625 C-193.9375 6.5625 -193.9375 6.5625 -193.35546875 8.4453125 C-193.27941406 9.18523438 -193.20335937 9.92515625 -193.125 10.6875 C-193.03605469 11.41195313 -192.94710937 12.13640625 -192.85546875 12.8828125 C-193.04436841 19.05353466 -195.35438634 24.95931266 -197.29760742 30.76538086 C-204.22652038 51.57112908 -208.4754793 72.93885544 -211.9375 94.5625 C-211.54860596 94.02343018 -211.15971191 93.48436035 -210.7590332 92.92895508 C-203.94309066 83.63257701 -197.25102109 79.59469404 -186.125 76.875 C-172.19057599 75.50888 -160.23389335 76.99891658 -148.9375 85.5625 C-148.63706787 84.30530151 -148.63706787 84.30530151 -148.33056641 83.02270508 C-145.28728398 70.56016359 -141.82877255 58.21955398 -138.33691406 45.8762207 C-137.30231881 42.21396064 -136.27607423 38.54942095 -135.25 34.88476562 C-134.59165226 32.55194036 -133.93281628 30.2192528 -133.2734375 27.88671875 C-132.9682016 26.79308517 -132.6629657 25.6994516 -132.34848022 24.57267761 C-131.91760605 23.05883232 -131.91760605 23.05883232 -131.47802734 21.5144043 C-131.22806 20.6277861 -130.97809265 19.74116791 -130.72055054 18.8276825 C-129.9375 16.5625 -129.9375 16.5625 -127.9375 13.5625 C-122.81569666 11.85523222 -117.89325903 11.94892854 -112.75 13.5625 C-106.87874726 17.73761306 -103.2212583 23.44566355 -101.40234375 30.3984375 C-99.80149676 41.29495904 -100.25093722 52.88821037 -102.9375 63.5625 C-101.9475 62.5725 -101.9475 62.5725 -100.9375 61.5625 C-95.42780667 60.44188441 -91.15612056 60.05354781 -85.9375 62.5625 C-79.71011589 69.81808149 -79.65771332 81.68346468 -80.0625 90.6875 C-80.57564427 96.35109232 -81.91949148 101.2131272 -84.09765625 106.453125 C-85.06080234 108.4937865 -85.06080234 108.4937865 -84.9375 110.5625 C-81.9675 110.0675 -81.9675 110.0675 -78.9375 109.5625 C-75.53988849 97.13907022 -72.44940176 84.6469153 -69.4375 72.125 C-69.1928299 71.11035675 -68.94815979 70.0957135 -68.69607544 69.05032349 C-65.47666809 55.65136098 -62.55021676 42.33717381 -60.62109375 28.68359375 C-60.12728729 25.41112891 -59.567124 22.4911837 -57.9375 19.5625 C-52.82995695 17.85998565 -47.27236563 17.71345795 -42.1875 19.5625 C-34.81075924 26.1196029 -31.23384558 33.89778072 -29.9375 43.5625 C-29.81960526 46.26311215 -29.74754541 48.9252595 -29.75 51.625 C-29.74935547 52.36290771 -29.74871094 53.10081543 -29.74804688 53.86108398 C-29.81167478 60.56587434 -30.65455149 66.97593398 -31.9375 73.5625 C-31.53660156 72.50289063 -31.13570313 71.44328125 -30.72265625 70.3515625 C-26.33296684 59.47510634 -26.33296684 59.47510634 -22.6796875 57.0859375 C-18.35319897 56.10331129 -14.23526152 56.46050987 -9.9375 57.5625 C-10.09903564 57.02689453 -10.26057129 56.49128906 -10.42700195 55.93945312 C-13.28508901 42.63178427 -11.38267701 26.50690937 -10.1875 13 C-10.1258667 12.19304688 -10.0642334 11.38609375 -10.00073242 10.5546875 C-9.64557102 7.16166059 -9.15839021 4.87359923 -7.16796875 2.0703125 C-4.56488186 0.31060752 -3.12400269 -0.00481356 0 0 Z M-104.9375 65.5625 C-103.9375 67.5625 -103.9375 67.5625 -103.9375 67.5625 Z M-105.9375 68.5625 C-104.9375 70.5625 -104.9375 70.5625 -104.9375 70.5625 Z M-4.9375 69.5625 C-5.2675 78.4725 -5.5975 87.3825 -5.9375 96.5625 C-2.5034375 94.9228125 -2.5034375 94.9228125 1 93.25 C6.59494977 90.60915457 12.12228121 88.3341442 18.0625 86.5625 C15.74208574 83.94826705 13.482504 82.68240864 10.3125 81.25 C4.17357282 78.28359869 -0.15697195 74.34302805 -4.9375 69.5625 Z M-158.9375 119.5625 C-160.4225 121.5425 -160.4225 121.5425 -161.9375 123.5625 C-160.6175 123.5625 -159.2975 123.5625 -157.9375 123.5625 C-158.2675 122.2425 -158.5975 120.9225 -158.9375 119.5625 Z " fill="#060504" transform="translate(338.9375,10.4375)"/>
<path d="M0 0 C-1.42873515 4.32563179 -2.86439069 8.64652517 -4.39453125 12.9375 C-7.53695572 21.86611536 -10.09125885 30.86031208 -12.3125 40.0625 C-12.56684814 41.10857422 -12.82119629 42.15464844 -13.08325195 43.23242188 C-14.17527227 47.87843143 -15.1204996 52.43239693 -15.60546875 57.18359375 C-16 61 -16 61 -17 62 C-17.40609795 63.9509701 -17.75746775 65.91337642 -18.0859375 67.87890625 C-18.29299316 69.10206543 -18.50004883 70.32522461 -18.71337891 71.58544922 C-18.93398844 72.9111213 -19.15452737 74.23680514 -19.375 75.5625 C-19.82611872 78.24383029 -20.2799465 80.92469762 -20.734375 83.60546875 C-20.95287109 84.89501465 -21.17136719 86.18456055 -21.39648438 87.51318359 C-22.08313532 91.48031496 -22.84105556 95.42608839 -23.625 99.375 C-24.86628986 105.80460253 -25.69581591 112.25239942 -26.5 118.75 C-29.49319104 142.56395945 -29.49319104 142.56395945 -35 147 C-38.25 148.25 -38.25 148.25 -42 148 C-49.06830349 143.99277282 -53.12092536 136.87036106 -57 130 C-57.35787598 129.37174316 -57.71575195 128.74348633 -58.08447266 128.09619141 C-64.54834591 116.63738267 -69.84476995 104.74065002 -74.8894043 92.60766602 C-77.30130472 86.82683937 -79.82204658 81.39197784 -83 76 C-83 75.34 -83 74.68 -83 74 C-83.66 74 -84.32 74 -85 74 C-85.03738281 74.64582031 -85.07476562 75.29164062 -85.11328125 75.95703125 C-86.32414639 93.31276489 -89.96347991 109.57637793 -95 126.1875 C-95.54010331 128.00815511 -96.07916951 129.8291182 -96.6171875 131.65039062 C-97.13969515 133.40652693 -97.66309936 135.16239678 -98.1875 136.91796875 C-98.42509033 137.71389938 -98.66268066 138.50983002 -98.9074707 139.32987976 C-101.23313166 146.99245064 -103.84708944 154.126217 -108 161 C-112.18198239 157.39484277 -114.52764708 153.37668504 -115.2890625 147.93359375 C-115.45308464 143.76594016 -114.85472545 140.15080282 -113.6640625 136.1640625 C-111.85692886 129.73010839 -110.58697616 123.21830445 -109.375 116.65185547 C-109.00668156 114.6611135 -108.62890365 112.67234455 -108.25 110.68359375 C-107.59689404 107.2188994 -106.98197486 103.74882141 -106.38900757 100.27334595 C-106.12256226 98.71624932 -105.850492 97.16010772 -105.57363892 95.60482788 C-102.88455473 80.28004277 -102.78723851 65.46865836 -103.2878418 49.95239258 C-103.37831557 46.93826245 -103.43159804 43.92520612 -103.48046875 40.91015625 C-103.52084763 40.00080826 -103.5612265 39.09146027 -103.60282898 38.15455627 C-103.65748897 33.556247 -103.4272245 30.85454073 -100.14379883 27.47192383 C-97.22699958 25.17848651 -94.9904418 23.7985106 -91.5 22.625 C-90.6028125 22.30789062 -89.705625 21.99078125 -88.78125 21.6640625 C-85.76536312 20.94397715 -83.08958706 20.88186873 -80 21 C-78.95725075 24.56218399 -77.91586285 28.12476436 -76.875 31.6875 C-76.55587646 32.77949707 -76.23675293 33.87149414 -75.90795898 34.99658203 C-74.17104361 40.95036355 -72.45240552 46.9084798 -70.76928711 52.87768555 C-69.79484768 56.32070488 -68.80196877 59.75828064 -67.80664062 63.1953125 C-67.24396474 65.15173518 -66.68853657 67.11025059 -66.13867188 69.0703125 C-60.95892364 87.4623343 -54.97594611 106.75974149 -43 122 C-42.34 122.33 -41.68 122.66 -41 123 C-40.896875 121.824375 -40.79375 120.64875 -40.6875 119.4375 C-40.24709497 115.40562301 -39.49065189 111.52365052 -38.625 107.5625 C-35.6021939 93.07381369 -34.35019572 78.24739201 -33.28515625 63.50390625 C-33.22456024 62.67910263 -33.16396423 61.85429901 -33.10153198 61.00450134 C-32.80372594 56.92901454 -32.52103158 52.85351073 -32.265625 48.77514648 C-31.72630757 40.77112207 -30.79014586 33.0193161 -29.0703125 25.17578125 C-28.90829849 24.43320068 -28.74628448 23.69062012 -28.57936096 22.92553711 C-26.96795522 16.05094498 -24.67788919 10.68165204 -18.89453125 6.46484375 C-16.64208119 5.13508408 -14.40069292 4.03583197 -12 3 C-10.90365234 2.52240234 -10.90365234 2.52240234 -9.78515625 2.03515625 C-6.29869935 0.62629006 -3.798561 0 0 0 Z " fill="#F9F9F9" transform="translate(141,21)"/>
<path d="M0 0 C5.50812121 2.90706397 9.17864607 6.87816902 11.453125 12.75390625 C15.27228217 28.43973034 7.9423899 43.93606414 2.0949707 58.12426758 C-3.9037055 72.89273989 -8.39095263 88.27117159 -11 104 C-5.43951145 99.43972128 -0.80328961 94.69361529 3.5 88.9375 C4.3362793 87.83039673 4.3362793 87.83039673 5.18945312 86.70092773 C10.08786031 80.10042339 14.19911659 73.28577889 18 66 C18.49113281 65.07316406 18.98226562 64.14632812 19.48828125 63.19140625 C22.04407144 58.23814916 24.1503624 53.25686476 26 48 C30.38416327 51.79960817 31.70621254 55.47342783 32.37109375 61.19140625 C32.65482515 75.59494708 27.79405117 85.14763645 18.42578125 95.61328125 C16 98 16 98 14 98 C14.33 98.99 14.66 99.98 15 101 C20.05960904 103.46493774 25.49181721 103.82139568 31 103 C34.52503742 101.63134022 37.74260173 99.91058937 41 98 C41.66 97.67 42.32 97.34 43 97 C41.7007518 106.15889779 34.27295155 111.96045509 27.33203125 117.37109375 C21.70329234 121.30272545 16.82827332 122.11068095 10 121 C5.36141432 118.5010142 2.34151605 114.6830321 0 110 C-4.97790455 111.55559517 -9.32902455 114.31206854 -13 118 C-13.2475 119.11375 -13.495 120.2275 -13.75 121.375 C-15.82736839 127.39936832 -21.48011408 130.18149061 -27 133 C-28.32 133 -29.64 133 -31 133 C-32.39616794 110.91986251 -25.51574889 88.11242887 -19.8203125 67.015625 C-19.51906464 65.89877823 -19.21781677 64.78193146 -18.90744019 63.63124084 C-15.75733969 52.01396193 -12.46014365 40.44005793 -9.11816406 28.87670898 C-8.10066563 25.35323298 -7.08928897 21.82803285 -6.078125 18.30273438 C-5.43004843 16.05458342 -4.78162521 13.80653236 -4.1328125 11.55859375 C-3.83182648 10.50788193 -3.53084045 9.4571701 -3.22073364 8.37461853 C-2.80427078 6.93899315 -2.80427078 6.93899315 -2.37939453 5.47436523 C-2.13625519 4.63123276 -1.89311584 3.78810028 -1.64260864 2.91941833 C-1 1 -1 1 0 0 Z " fill="#F7F7F7" transform="translate(221,29)"/>
<path d="M0 0 C3.30686529 1.39575483 5.01575326 2.9247093 7.125 5.8125 C7.62257813 6.47894531 8.12015625 7.14539062 8.6328125 7.83203125 C14.15632838 16.59074929 13.31560044 28.8372865 11.49902344 38.72753906 C10.02309673 44.93008113 8.02171118 50.95818492 6 57 C5.23737352 59.38572584 4.4859583 61.77477631 3.73535156 64.16430664 C3.2490318 65.70900158 2.75885771 67.25248885 2.26464844 68.79467773 C-0.71937343 78.12908342 -3.35676405 87.5645259 -6 97 C7.76903881 85.31034123 16.98592876 70.93428549 25.375 55.125 C25.79193115 54.34060547 26.2088623 53.55621094 26.63842773 52.74804688 C29.14295756 47.93199686 31.19254806 43.11917033 33 38 C36 39 36 39 37.1796875 40.91796875 C38.37121343 45.39470189 38.20969107 49.70335122 38.125 54.3125 C38.11597656 55.24384766 38.10695313 56.17519531 38.09765625 57.13476562 C38.07418263 59.4234436 38.04134729 61.71158672 38 64 C37.34 64 36.68 64 36 64 C36.0825 64.804375 36.165 65.60875 36.25 66.4375 C35.57462353 76.06161476 29.07404621 84.2191209 22.2421875 90.65625 C21.83226562 91.0996875 21.42234375 91.543125 21 92 C21.07606836 94.13803054 21.07606836 94.13803054 22 96 C26.51584641 98.25792321 32.16410809 97.50047256 36.89453125 96.2109375 C41.76354727 94.46581821 46.45038159 92.4592532 51 90 C49.75102026 99.01162597 41.9443218 105.71658815 35 111 C29.89459712 114.44059759 24.99400256 114.955435 19 114 C12.91593091 111.77898258 8.9457542 108.76343212 6 103 C6 102.34 6 101.68 6 101 C4.24870343 102.10210905 2.49901536 103.20677432 0.75 104.3125 C-0.22453125 104.92738281 -1.1990625 105.54226562 -2.203125 106.17578125 C-3.12609375 106.77777344 -4.0490625 107.37976563 -5 108 C-5.77601563 108.48082031 -6.55203125 108.96164063 -7.3515625 109.45703125 C-9.20958717 110.86590957 -9.20958717 110.86590957 -9.2578125 113.0859375 C-9.21398437 113.84132813 -9.17015625 114.59671875 -9.125 115.375 C-9.28125 117.76953125 -9.28125 117.76953125 -10 120 C-14.04401174 123.38297136 -18.83986321 125.26917921 -24.125 125.3125 C-25.07375 125.209375 -26.0225 125.10625 -27 125 C-26.42009101 115.61856909 -24.1537385 106.76473457 -21.875 97.6875 C-21.46709738 96.04014505 -21.05996159 94.39260004 -20.65356445 92.74487305 C-19.83228943 89.41741407 -19.00800935 86.09072459 -18.18115234 82.76464844 C-16.48997546 75.95369176 -14.83489781 69.13417057 -13.1875 62.3125 C-12.90213379 61.13268555 -12.61676758 59.95287109 -12.32275391 58.73730469 C-10.56326496 51.4312165 -8.87087775 44.11405501 -7.28051758 36.76928711 C-6.41233817 32.77261056 -5.43719863 28.82406519 -4.375 24.875 C-2.96528137 19.41234029 -2.25757265 13.93938571 -1.64599609 8.34130859 C-1.32321948 5.40134557 -0.93932891 2.81798673 0 0 Z " fill="#F7F7F7" transform="translate(291,35)"/>
<path d="M0 0 C0.74991211 0.00870117 1.49982422 0.01740234 2.27246094 0.02636719 C10.04464228 0.23312823 15.7134418 1.88043018 21.5625 7.375 C23.08066358 10.41132717 23.05857651 11.96447399 22.5625 15.375 C20.5628186 18.67325499 18.11429343 21.49250993 15.5625 24.375 C15.03011719 25.0246875 14.49773437 25.674375 13.94921875 26.34375 C6.4729675 34.73090082 -5.59302459 42.36072089 -16.4375 45.375 C-11.7286642 50.20775253 -9.86688344 51.55501783 -3.125 51.75 C3.67253705 51.74299223 8.77109291 50.16788436 14.91796875 47.37109375 C17.5625 46.375 17.5625 46.375 20.5625 47.375 C14.60580244 55.88456794 3.34709547 63.44824796 -6.7890625 65.95703125 C-12.83432426 66.91107698 -18.97893007 67.09022034 -24.875 65.375 C-29.44586119 61.80749858 -31.94518211 57.49575398 -33.25 51.875 C-33.311875 51.05 -33.37375 50.225 -33.4375 49.375 C-35.29375 49.189375 -35.29375 49.189375 -37.1875 49 C-40.3137197 48.61753695 -42.72629237 48.06950477 -45.4375 46.375 C-45.4375 45.385 -45.4375 44.395 -45.4375 43.375 C-41.8075 42.715 -38.1775 42.055 -34.4375 41.375 C-34.49164063 40.22 -34.54578125 39.065 -34.6015625 37.875 C-34.59550762 33.28944106 -33.48845796 29.60775631 -31.8125 25.375 C-31.54107178 24.67584473 -31.26964355 23.97668945 -30.98999023 23.25634766 C-27.19929115 13.87537995 -21.34279726 6.41427891 -12.2421875 1.73046875 C-8.15728948 0.05703932 -4.37168971 -0.08410857 0 0 Z " fill="#F6F6F6" transform="translate(164.4375,93.625)"/>
<path d="M0 0 C2.31185244 2.104906 3.61790116 3.94262884 4.83203125 6.81640625 C5.15300781 7.57244141 5.47398437 8.32847656 5.8046875 9.10742188 C6.13726562 9.91759766 6.46984375 10.72777344 6.8125 11.5625 C7.15925781 12.39716797 7.50601562 13.23183594 7.86328125 14.09179688 C10.27598693 19.99494256 12.4719626 25.95435165 14.5 32 C14.75499268 32.75869385 15.00998535 33.5173877 15.27270508 34.29907227 C16.25270401 37.30987922 17 39.81326402 17 43 C31.65548018 38.74037873 45.53459803 32.09234881 58.875 24.75 C59.60541504 24.35022949 60.33583008 23.95045898 61.08837891 23.53857422 C64.43652516 21.65069815 67.46352104 19.71142255 70.3828125 17.203125 C73 15 73 15 75 15 C72.91170172 20.98787567 69.00510244 25.18325748 65 30 C64.525625 30.62261719 64.05125 31.24523437 63.5625 31.88671875 C54.2541965 43.77142769 39.72509967 51.5042204 25 54 C31.35747586 62.07571257 39.28075238 68.57992715 48 74 C43.67382086 75.32298507 40.16435578 74.38109278 35.875 73.3125 C35.11380859 73.12606934 34.35261719 72.93963867 33.56835938 72.74755859 C20.70164764 69.49802948 9.11523551 64.80534251 2 53 C-4.4461008 40.76504789 -2.03222335 26.45993948 -1 13.1875 C-0.85691406 11.27227539 -0.85691406 11.27227539 -0.7109375 9.31835938 C-0.47824311 6.21188922 -0.24120375 3.10581899 0 0 Z " fill="#E57E28" transform="translate(341,16)"/>
<path d="M0 0 C1.69921875 1.66796875 1.69921875 1.66796875 2.19921875 4.66796875 C1.50819163 14.9469972 -4.14367765 22.82832991 -10.30078125 30.66796875 C-14.27634037 35.5549914 -14.27634037 35.5549914 -15.30078125 41.66796875 C-7.11185884 42.42001264 -0.70694052 40.73282892 6.828125 37.76171875 C9.69921875 36.66796875 9.69921875 36.66796875 11.69921875 36.66796875 C8.65140249 44.4260465 -0.23285041 47.43800036 -7.30078125 50.66796875 C-13.74886537 53.29496598 -21.44662816 53.86181027 -28.30078125 52.66796875 C-30.67513263 50.43531254 -32.08379997 48.91622059 -32.6484375 45.66796875 C-31.78914873 39.64117629 -29.76619625 34.36534803 -27.359375 28.78125 C-26.23861519 25.48514089 -25.92303166 23.1216793 -26.30078125 19.66796875 C-30.9738633 15.11786254 -36.09398564 14.91329664 -42.30078125 14.66796875 C-40.53702753 9.3767076 -34.99115839 7.29842353 -30.30078125 4.66796875 C-27.02597927 3.12744141 -23.72168384 1.84371938 -20.30078125 0.66796875 C-19.16640625 0.25546875 -18.03203125 -0.15703125 -16.86328125 -0.58203125 C-11.42499705 -1.72693319 -4.9900353 -2.88896781 0 0 Z " fill="#F6F6F6" transform="translate(381.30078125,102.33203125)"/>
<path d="M0 0 C3.0625 1.5 3.0625 1.5 5 3 C4.06960569 8.53339777 0.1559523 11.53566795 -4 15 C-15.40374787 23 -15.40374787 23 -18 23 C-18.42093678 14.37859123 -18.33141354 8.72801039 -12.375 2.0625 C-8.07508329 -0.56522688 -4.92005326 -0.86824469 0 0 Z " fill="#070707" transform="translate(164,104)"/>
<path d="M0 0 C0.33 0 0.66 0 1 0 C1.03758423 0.90093384 1.03758423 0.90093384 1.07592773 1.82006836 C1.1915528 4.52611437 1.31442936 7.23178283 1.4375 9.9375 C1.47681641 10.88302734 1.51613281 11.82855469 1.55664062 12.80273438 C1.59853516 13.70185547 1.64042969 14.60097656 1.68359375 15.52734375 C1.72025146 16.35999756 1.75690918 17.19265137 1.79467773 18.05053711 C1.79367103 20.00338858 1.79367103 20.00338858 3 21 C3.52928076 23.31282351 3.96333715 25.63721913 4.40234375 27.96875 C4.59957031 28.6390625 4.79679687 29.309375 5 30 C5.66 30.33 6.32 30.66 7 31 C7.61875 32.051875 7.61875 32.051875 8.25 33.125 C10.46641314 36.76625016 13.17191517 39.82412481 16 43 C10.36804233 41.63467693 7.24748605 37.52025375 4 33 C0.28798933 26.28939812 -1.14306279 20.23015377 -1.125 12.5625 C-1.12886719 10.92474609 -1.12886719 10.92474609 -1.1328125 9.25390625 C-1.00359489 6.08807476 -0.59097317 3.10964455 0 0 Z " fill="#C77837" transform="translate(340,38)"/>
<path d="M0 0 C1.48280196 0.78483659 2.9611498 1.57809334 4.4375 2.375 C5.67306641 3.03628906 5.67306641 3.03628906 6.93359375 3.7109375 C9 5 9 5 10 7 C1.97229811 6.44636539 -5.33854067 4.34312056 -13 2 C-9.87819599 1.03338637 -7.47916205 1.01011091 -4.25 1.4375 C-3.05117188 1.59025391 -3.05117188 1.59025391 -1.828125 1.74609375 C-1.22484375 1.82988281 -0.6215625 1.91367188 0 2 C0 1.34 0 0.68 0 0 Z " fill="#D17E3A" transform="translate(379,84)"/>
<path d="M0 0 C-1.57096721 5.02709507 -4.61993049 9.02866469 -8 13 C-8.33 13 -8.66 13 -9 13 C-8.979375 12.21625 -8.95875 11.4325 -8.9375 10.625 C-8.81315937 8.01885039 -8.81315937 8.01885039 -10 6 C-8.71283353 4.99421411 -7.42011342 3.99553202 -6.125 3 C-5.40570313 2.443125 -4.68640625 1.88625 -3.9453125 1.3125 C-2 0 -2 0 0 0 Z " fill="#D77E33" transform="translate(416,31)"/>
<path d="M0 0 C2.01003635 3.01505452 2.99171541 5.57496212 4.125 9 C4.47820312 10.051875 4.83140625 11.10375 5.1953125 12.1875 C6 15 6 15 6 18 C7.32 18 8.64 18 10 18 C10 18.66 10 19.32 10 20 C8.35 20 6.7 20 5 20 C3.74335022 17.09399739 3 15.20395416 3 12 C2.34 12 1.68 12 1 12 C0.67 8.04 0.34 4.08 0 0 Z " fill="#C5732F" transform="translate(352,41)"/>
<path d="M0 0 C0.8125 1.6875 0.8125 1.6875 1 4 C-1.4375 6.75 -1.4375 6.75 -4 9 C-4.66 7.68 -5.32 6.36 -6 5 C-4.06745228 2.9754262 -2.36841312 1.57894208 0 0 Z " fill="#DFDFDF" transform="translate(263,126)"/>
<path d="M0 0 C0 0.66 0 1.32 0 2 C-4.37536895 5.39091093 -8.7271982 7.33027943 -14 9 C-14.66 8.67 -15.32 8.34 -16 8 C-13.71125827 6.66141476 -11.41930344 5.32898986 -9.125 4 C-8.47402344 3.6184375 -7.82304687 3.236875 -7.15234375 2.84375 C-2.2265625 0 -2.2265625 0 0 0 Z " fill="#C47232" transform="translate(406,38)"/>
<path d="M0 0 C1.48280196 0.78483659 2.9611498 1.57809334 4.4375 2.375 C5.67306641 3.03628906 5.67306641 3.03628906 6.93359375 3.7109375 C9 5 9 5 10 7 C7.03 6.67 4.06 6.34 1 6 C1.33 4.68 1.66 3.36 2 2 C1.34 2 0.68 2 0 2 C0 1.34 0 0.68 0 0 Z " fill="#B16C34" transform="translate(379,84)"/>
<path d="M0 0 C-1.1858237 3.37503669 -2.27573689 5.64722731 -5 8 C-5 7.01 -5 6.02 -5 5 C-5.66 4.67 -6.32 4.34 -7 4 C-2.25 0 -2.25 0 0 0 Z " fill="#A56232" transform="translate(416,31)"/>
</svg>
