<svg width="95" height="28" viewBox="0 0 95 28" fill="none" xmlns="http://www.w3.org/2000/svg">
<g clip-path="url(#clip0)">
<path d="M91 0H3.5C1.567 0 0 1.567 0 3.5V24.5C0 26.433 1.567 28 3.5 28H91C92.933 28 94.5 26.433 94.5 24.5V3.5C94.5 1.567 92.933 0 91 0Z" fill="black"/>
<path d="M91 0.56C91.7797 0.56 92.5275 0.869749 93.0789 1.42111C93.6302 1.97246 93.94 2.72026 93.94 3.5V24.5C93.94 25.2797 93.6302 26.0275 93.0789 26.5789C92.5275 27.1303 91.7797 27.44 91 27.44H3.5C2.72026 27.44 1.97246 27.1303 1.42111 26.5789C0.869749 26.0275 0.56 25.2797 0.56 24.5V3.5C0.56 2.72026 0.869749 1.97246 1.42111 1.42111C1.97246 0.869749 2.72026 0.56 3.5 0.56H91ZM91 0H3.5C2.57174 0 1.6815 0.368749 1.02513 1.02513C0.368749 1.6815 0 2.57174 0 3.5L0 24.5C0 25.4283 0.368749 26.3185 1.02513 26.9749C1.6815 27.6313 2.57174 28 3.5 28H91C91.9283 28 92.8185 27.6313 93.4749 26.9749C94.1313 26.3185 94.5 25.4283 94.5 24.5V3.5C94.5 2.57174 94.1313 1.6815 93.4749 1.02513C92.8185 0.368749 91.9283 0 91 0V0Z" fill="#A6A6A6"/>
<path d="M33.194 7.16847C33.2055 7.42518 33.1649 7.68156 33.0747 7.92216C32.9845 8.16277 32.8465 8.38262 32.669 8.56847C32.4702 8.77378 32.2302 8.93478 31.9648 9.04093C31.6994 9.14708 31.4146 9.196 31.129 9.18447C30.8418 9.19087 30.5563 9.13826 30.2902 9.0299C30.0241 8.92154 29.7831 8.75972 29.582 8.55447C29.3746 8.35321 29.211 8.11132 29.1014 7.84392C28.9918 7.57653 28.9386 7.28939 28.945 7.00047C28.9376 6.71039 28.9904 6.42191 29.1 6.15324C29.2096 5.88457 29.3738 5.64153 29.582 5.43947C29.8939 5.13475 30.2888 4.92899 30.7173 4.84803C31.1457 4.76708 31.5885 4.81455 31.99 4.98447C32.2425 5.08823 32.4676 5.24871 32.648 5.45347L32.277 5.82447C32.138 5.65701 31.9619 5.52427 31.7626 5.43678C31.5633 5.34929 31.3464 5.30947 31.129 5.32047C30.9104 5.3194 30.6938 5.36249 30.4922 5.44716C30.2906 5.53184 30.1082 5.65635 29.9559 5.81323C29.8035 5.97011 29.6845 6.15613 29.6058 6.36014C29.5271 6.56415 29.4905 6.78195 29.498 7.00047C29.4934 7.32676 29.5856 7.64711 29.7629 7.92109C29.9401 8.19507 30.1946 8.41041 30.4941 8.53995C30.7936 8.66949 31.1248 8.70742 31.4458 8.64896C31.7669 8.59051 32.0634 8.43827 32.298 8.21147C32.5139 7.97772 32.6403 7.67529 32.655 7.35747H31.129V6.85347H33.166C33.1817 6.95781 33.191 7.063 33.194 7.16847Z" fill="white" stroke="white" stroke-width="0.2" stroke-miterlimit="10"/>
<path d="M36.3999 5.41839H34.5099V6.74839H36.2319V7.25239H34.5099V8.58239H36.3999V9.10039H33.9639V4.90039H36.3999V5.41839Z" fill="white" stroke="white" stroke-width="0.2" stroke-miterlimit="10"/>
<path d="M38.6964 9.10039H38.1574V5.41839H36.9814V4.90039H39.9004V5.41839H38.6964V9.10039Z" fill="white" stroke="white" stroke-width="0.2" stroke-miterlimit="10"/>
<path d="M41.958 9.10039V4.90039H42.497V9.10039H41.958Z" fill="white" stroke="white" stroke-width="0.2" stroke-miterlimit="10"/>
<path d="M44.8908 9.10039H44.3518V5.41839H43.1758V4.90039H46.0598V5.41839H44.8908V9.10039Z" fill="white" stroke="white" stroke-width="0.2" stroke-miterlimit="10"/>
<path d="M51.5272 8.5543C51.325 8.75664 51.0849 8.91715 50.8207 9.02667C50.5564 9.13618 50.2732 9.19255 49.9872 9.19255C49.7011 9.19255 49.4179 9.13618 49.1536 9.02667C48.8894 8.91715 48.6493 8.75664 48.4471 8.5543C48.2435 8.35124 48.0838 8.10854 47.9779 7.84123C47.8719 7.57392 47.822 7.2877 47.8311 7.0003C47.822 6.7129 47.8719 6.42667 47.9779 6.15936C48.0838 5.89205 48.2435 5.64935 48.4471 5.4463C48.645 5.23826 48.8843 5.07406 49.1495 4.96433C49.4148 4.8546 49.7002 4.80178 49.9872 4.8093C50.2737 4.80476 50.5582 4.85894 50.823 4.96849C51.0879 5.07804 51.3275 5.24065 51.5272 5.4463C51.7284 5.65104 51.8866 5.89404 51.9924 6.16095C52.0982 6.42785 52.1495 6.71325 52.1432 7.0003C52.1523 7.2877 52.1024 7.57392 51.9964 7.84123C51.8905 8.10854 51.7308 8.35124 51.5272 8.5543V8.5543ZM48.8461 8.2043C48.9953 8.35541 49.1729 8.4754 49.3688 8.55729C49.5647 8.63919 49.7749 8.68136 49.9872 8.68136C50.1995 8.68136 50.4096 8.63919 50.6055 8.55729C50.8014 8.4754 50.979 8.35541 51.1282 8.2043C51.2832 8.04542 51.4047 7.85692 51.4852 7.65005C51.5658 7.44319 51.6039 7.2222 51.5972 7.0003C51.6002 6.7764 51.5578 6.55422 51.4723 6.34724C51.3869 6.14027 51.2603 5.95283 51.1002 5.7963C50.951 5.64518 50.7734 5.52519 50.5775 5.4433C50.3816 5.3614 50.1715 5.31923 49.9592 5.31923C49.7469 5.31923 49.5367 5.3614 49.3408 5.4433C49.1449 5.52519 48.9673 5.64518 48.8181 5.7963C48.6681 5.95746 48.5518 6.147 48.4761 6.35376C48.4003 6.56053 48.3667 6.78035 48.3771 7.0003C48.3704 7.2222 48.4085 7.44319 48.4891 7.65005C48.5696 7.85692 48.6911 8.04542 48.8461 8.2043V8.2043Z" fill="white" stroke="white" stroke-width="0.2" stroke-miterlimit="10"/>
<path d="M52.9062 9.10039V4.90039H53.5572L55.6012 8.16939V7.35739V4.90039H56.1402V9.10039H55.5802L53.4452 5.67739V6.48239V9.10039H52.9062Z" fill="white" stroke="white" stroke-width="0.2" stroke-miterlimit="10"/>
<path d="M47.6983 15.2251C47.1085 15.2265 46.5324 15.4028 46.0427 15.7316C45.5531 16.0604 45.172 16.527 44.9476 17.0724C44.7232 17.6179 44.6655 18.2176 44.7819 18.7958C44.8984 19.3739 45.1836 19.9046 45.6016 20.3207C46.0197 20.7367 46.5517 21.0195 47.1304 21.1332C47.7091 21.2469 48.3085 21.1864 48.8529 20.9595C49.3973 20.7325 49.8621 20.3492 50.1886 19.858C50.5151 19.3669 50.6887 18.7899 50.6873 18.2001C50.693 17.8067 50.6195 17.4161 50.4711 17.0517C50.3227 16.6872 50.1025 16.3564 49.8236 16.0788C49.5448 15.8012 49.2129 15.5826 48.8477 15.4359C48.4826 15.2893 48.0917 15.2176 47.6983 15.2251V15.2251ZM47.6983 20.0061C47.3368 20.0314 46.976 19.9474 46.6629 19.7649C46.3499 19.5825 46.0989 19.31 45.9427 18.983C45.7865 18.6561 45.7322 18.2897 45.787 17.9314C45.8418 17.5732 46.0031 17.2398 46.2499 16.9745C46.4968 16.7091 46.8177 16.5242 47.171 16.4437C47.5243 16.3632 47.8937 16.3908 48.2311 16.523C48.5685 16.6552 48.8583 16.8858 49.0629 17.1849C49.2675 17.484 49.3774 17.8378 49.3783 18.2001C49.3895 18.4298 49.3547 18.6593 49.2759 18.8752C49.197 19.0912 49.0757 19.2891 48.9192 19.4575C48.7626 19.6258 48.5739 19.761 48.3642 19.8553C48.1545 19.9495 47.9281 20.0008 47.6983 20.0061V20.0061ZM41.1743 15.2251C40.5845 15.2265 40.0084 15.4028 39.5187 15.7316C39.0291 16.0604 38.648 16.527 38.4236 17.0724C38.1992 17.6179 38.1415 18.2176 38.2579 18.7958C38.3744 19.3739 38.6596 19.9046 39.0776 20.3207C39.4957 20.7367 40.0277 21.0195 40.6064 21.1332C41.1851 21.2469 41.7845 21.1864 42.3289 20.9595C42.8733 20.7325 43.3381 20.3492 43.6646 19.858C43.9911 19.3669 44.1646 18.7899 44.1633 18.2001C44.169 17.8067 44.0955 17.4161 43.9471 17.0517C43.7987 16.6872 43.5785 16.3564 43.2996 16.0788C43.0208 15.8012 42.6889 15.5826 42.3237 15.4359C41.9586 15.2893 41.5677 15.2176 41.1743 15.2251V15.2251ZM41.1743 20.0061C40.8128 20.0314 40.452 19.9474 40.1389 19.7649C39.8259 19.5825 39.5749 19.31 39.4187 18.983C39.2625 18.6561 39.2082 18.2897 39.263 17.9314C39.3178 17.5732 39.4791 17.2398 39.7259 16.9745C39.9728 16.7091 40.2937 16.5242 40.647 16.4437C41.0003 16.3632 41.3697 16.3908 41.7071 16.523C42.0445 16.6552 42.3343 16.8858 42.5389 17.1849C42.7435 17.484 42.8534 17.8378 42.8543 18.2001C42.8655 18.4298 42.8307 18.6593 42.7519 18.8752C42.673 19.0912 42.5517 19.2891 42.3952 19.4575C42.2386 19.6258 42.0499 19.761 41.8402 19.8553C41.6305 19.9495 41.4041 20.0008 41.1743 20.0061V20.0061ZM33.4183 16.1421V17.4021H36.4423C36.3949 17.9956 36.1482 18.5556 35.7423 18.9911C35.4389 19.3002 35.0741 19.5421 34.6713 19.7013C34.2686 19.8605 33.8369 19.9333 33.4043 19.9151C32.5131 19.9151 31.6585 19.5611 31.0284 18.931C30.3983 18.3009 30.0443 17.4463 30.0443 16.5551C30.0443 15.664 30.3983 14.8094 31.0284 14.1793C31.6585 13.5491 32.5131 13.1951 33.4043 13.1951C34.2586 13.1824 35.0835 13.5069 35.7003 14.0981L36.5893 13.2091C36.1721 12.7965 35.6767 12.4713 35.1322 12.2525C34.5877 12.0337 34.005 11.9258 33.4183 11.9351C32.796 11.9109 32.1752 12.0126 31.5931 12.234C31.011 12.4555 30.4796 12.7921 30.0308 13.2238C29.5819 13.6556 29.2249 14.1735 28.981 14.7465C28.7371 15.3195 28.6113 15.9359 28.6113 16.5586C28.6113 17.1814 28.7371 17.7978 28.981 18.3708C29.2249 18.9438 29.5819 19.4617 30.0308 19.8934C30.4796 20.3252 31.011 20.6618 31.5931 20.8833C32.1752 21.1047 32.796 21.2064 33.4183 21.1821C34.0171 21.2061 34.6141 21.103 35.1703 20.8798C35.7265 20.6567 36.2291 20.3184 36.6453 19.8871C37.3803 19.0796 37.772 18.0176 37.7373 16.9261C37.7398 16.6634 37.7187 16.4011 37.6743 16.1421H33.4183ZM65.1353 17.1221C64.9527 16.5851 64.6113 16.1161 64.1563 15.7773C63.7013 15.4386 63.1541 15.246 62.5873 15.2251C62.2044 15.2244 61.8254 15.3022 61.4737 15.4537C61.1221 15.6052 60.8053 15.8273 60.5428 16.1061C60.2804 16.3849 60.078 16.7146 59.948 17.0748C59.818 17.435 59.7633 17.818 59.7873 18.2001C59.7813 18.8391 59.9822 19.4629 60.36 19.9783C60.7377 20.4937 61.2721 20.8731 61.8832 21.0597C62.4944 21.2464 63.1495 21.2303 63.7508 21.0139C64.3521 20.7975 64.8672 20.3924 65.2193 19.8591L64.2043 19.1591C64.053 19.4113 63.8383 19.6196 63.5817 19.7633C63.3251 19.9069 63.0354 19.981 62.7413 19.9781C62.4379 19.9907 62.1378 19.9111 61.8804 19.75C61.6231 19.5888 61.4205 19.3536 61.2993 19.0751L65.2823 17.4301L65.1353 17.1221ZM61.0753 18.1161C61.0611 17.8991 61.0905 17.6813 61.1617 17.4758C61.2329 17.2702 61.3445 17.081 61.49 16.9192C61.6355 16.7575 61.8118 16.6264 62.0087 16.5339C62.2055 16.4413 62.4189 16.389 62.6363 16.3801C62.8611 16.3658 63.0851 16.4178 63.2805 16.5298C63.4759 16.6419 63.6341 16.8089 63.7353 17.0101L61.0753 18.1161ZM57.8413 21.0001H59.1503V12.2501H57.8413V21.0001ZM55.6993 15.8901H55.6503C55.4515 15.6738 55.2087 15.5025 54.9383 15.3878C54.6678 15.2731 54.3759 15.2176 54.0823 15.2251C53.3173 15.2622 52.5959 15.5922 52.0676 16.1467C51.5394 16.7013 51.2447 17.4378 51.2447 18.2036C51.2447 18.9695 51.5394 19.706 52.0676 20.2605C52.5959 20.815 53.3173 21.145 54.0823 21.1821C54.379 21.1881 54.6735 21.1284 54.9445 21.0074C55.2156 20.8864 55.4566 20.7071 55.6503 20.4821H55.6993V20.9091C55.6993 22.0501 55.0903 22.6591 54.1103 22.6591C53.7829 22.6519 53.465 22.5476 53.1971 22.3594C52.9291 22.1712 52.7231 21.9076 52.6053 21.6021L51.4713 22.0711C51.6809 22.5977 52.0454 23.0483 52.5166 23.3632C52.9878 23.6782 53.5435 23.8428 54.1103 23.8351C55.6433 23.8351 56.9103 22.9321 56.9103 20.7341V15.4001H55.6993V15.8901ZM54.1943 20.0061C53.7356 19.9775 53.3051 19.7752 52.9905 19.4403C52.6758 19.1054 52.5007 18.6632 52.5007 18.2036C52.5007 17.7441 52.6758 17.3019 52.9905 16.967C53.3051 16.6321 53.7356 16.4297 54.1943 16.4011C54.4184 16.4108 54.6384 16.4655 54.841 16.5619C55.0436 16.6583 55.2247 16.7945 55.3736 16.9623C55.5225 17.1302 55.6361 17.3262 55.7077 17.5389C55.7793 17.7515 55.8074 17.9764 55.7903 18.2001C55.8094 18.4246 55.7827 18.6506 55.712 18.8645C55.6412 19.0784 55.5278 19.2758 55.3786 19.4446C55.2295 19.6134 55.0476 19.7502 54.844 19.8467C54.6404 19.9433 54.4194 19.9975 54.1943 20.0061V20.0061ZM71.2673 12.2501H68.1313V21.0001H69.4403V17.6821H71.2673C71.6403 17.7089 72.0149 17.6586 72.3677 17.5342C72.7204 17.4099 73.0438 17.2142 73.3176 16.9594C73.5914 16.7046 73.8097 16.3961 73.959 16.0531C74.1083 15.7102 74.1854 15.3402 74.1854 14.9661C74.1854 14.5921 74.1083 14.2221 73.959 13.8792C73.8097 13.5362 73.5914 13.2277 73.3176 12.9729C73.0438 12.7181 72.7204 12.5224 72.3677 12.398C72.0149 12.2737 71.6403 12.2233 71.2673 12.2501V12.2501ZM71.2673 16.4501H69.4403V13.4681H71.2953C71.6926 13.4681 72.0736 13.626 72.3545 13.9069C72.6354 14.1878 72.7933 14.5688 72.7933 14.9661C72.7933 15.3634 72.6354 15.7445 72.3545 16.0254C72.0736 16.3063 71.6926 16.4641 71.2953 16.4641L71.2673 16.4501ZM79.3453 15.1971C78.8686 15.1677 78.3937 15.2787 77.9794 15.5164C77.5651 15.754 77.2296 16.1078 77.0143 16.5341L78.1693 17.0171C78.286 16.8067 78.4611 16.6346 78.6735 16.5216C78.8859 16.4085 79.1265 16.3594 79.3663 16.3801C79.5324 16.3607 79.7008 16.3746 79.8616 16.421C80.0223 16.4673 80.1722 16.5452 80.3025 16.6501C80.4329 16.755 80.541 16.8849 80.6206 17.032C80.7002 17.1791 80.7497 17.3407 80.7663 17.5071V17.5911C80.3453 17.3699 79.8768 17.2546 79.4013 17.2551C78.1553 17.2551 76.8813 17.9551 76.8813 19.2291C76.8936 19.4999 76.9602 19.7655 77.0772 20.01C77.1941 20.2546 77.359 20.4731 77.5621 20.6527C77.7652 20.8322 78.0023 20.9692 78.2593 21.0553C78.5163 21.1414 78.788 21.1751 79.0583 21.1541C79.3867 21.1723 79.7141 21.1028 80.0069 20.9527C80.2997 20.8027 80.5472 20.5774 80.7243 20.3001H80.7663V21.0001H82.0263V17.6331C82.0263 16.1001 80.8643 15.2111 79.3733 15.2111L79.3453 15.1971ZM79.1843 19.9921C78.7573 19.9921 78.1623 19.7751 78.1623 19.2501C78.1623 18.5501 78.9043 18.3121 79.5623 18.3121C79.9781 18.3019 80.3891 18.4034 80.7523 18.6061C80.7083 18.9863 80.5281 19.3376 80.2449 19.595C79.9617 19.8525 79.5949 19.9985 79.2123 20.0061L79.1843 19.9921ZM86.6183 15.4001L85.1203 19.1941H85.0783L83.5243 15.4001H82.1243L84.4553 20.7061L83.1253 23.6531H84.5253L88.0743 15.4001H86.6183ZM74.8583 21.0001H76.1603V12.2501H74.8583V21.0001Z" fill="white"/>
<path d="M7.30764 5.27849C7.0845 5.55433 6.97442 5.9046 6.99964 6.25849V21.7425C6.97582 22.0998 7.09406 22.452 7.32864 22.7225L7.37764 22.7785L16.0296 14.1055V13.8955L7.35664 5.22949L7.30764 5.27849Z" fill="url(#paint0_linear)"/>
<path d="M18.9003 16.9959L16.0303 14.1049V13.8949L18.9003 11.0039L18.9633 11.0459L22.4003 12.9919C23.3803 13.5449 23.3803 14.4549 22.4003 15.0149L18.9773 16.9609L18.9003 16.9959Z" fill="url(#paint1_linear)"/>
<path d="M18.9836 16.961L16.0296 14L7.30762 22.722C7.50542 22.8981 7.7586 22.9994 8.02326 23.0083C8.28792 23.0173 8.54737 22.9333 8.75662 22.771L18.9836 16.961" fill="url(#paint2_linear)"/>
<path d="M18.9836 11.0455L8.75662 5.23554C8.54873 5.07098 8.28949 4.98498 8.02447 4.99266C7.75945 5.00034 7.50562 5.10121 7.30762 5.27754L16.0296 13.9995L18.9836 11.0455Z" fill="url(#paint3_linear)"/>
<path opacity="0.2" d="M18.8996 16.8906L8.75662 22.6656C8.55498 22.8178 8.30924 22.9001 8.05662 22.9001C7.804 22.9001 7.55826 22.8178 7.35662 22.6656V22.6656L7.30762 22.7146L7.35662 22.7706C7.55826 22.9228 7.804 23.0051 8.05662 23.0051C8.30924 23.0051 8.55498 22.9228 8.75662 22.7706L18.9836 16.9606L18.8996 16.8906Z" fill="black"/>
<path opacity="0.12" d="M7.30811 22.6237C7.08327 22.3461 6.97308 21.993 7.00011 21.6367V21.7417C6.97629 22.099 7.09454 22.4512 7.32911 22.7217L7.37811 22.6727L7.30811 22.6237Z" fill="black"/>
<path opacity="0.12" d="M22.4004 14.91L18.9004 16.891L18.9634 16.961L22.4004 15.008C22.6033 14.9222 22.7793 14.7833 22.9098 14.6059C23.0404 14.4285 23.1208 14.2192 23.1424 14C23.0986 14.1992 23.0087 14.3853 22.8798 14.5434C22.7509 14.7015 22.5867 14.827 22.4004 14.91Z" fill="black"/>
<path opacity="0.25" d="M8.757 5.33428L22.4 13.0903C22.5863 13.1732 22.7505 13.2988 22.8794 13.4569C23.0083 13.6149 23.0982 13.8011 23.142 14.0003C23.1204 13.7811 23.04 13.5717 22.9095 13.3944C22.7789 13.217 22.6029 13.0781 22.4 12.9923L8.757 5.23628C7.784 4.67628 7 5.13828 7 6.25828V6.36328C7 5.24328 7.784 4.78128 8.757 5.33428Z" fill="white"/>
</g>
<defs>
<linearGradient id="paint0_linear" x1="15.2596" y1="6.09749" x2="3.51364" y2="17.8435" gradientUnits="userSpaceOnUse">
<stop stop-color="#00A0FF"/>
<stop offset="0.01" stop-color="#00A1FF"/>
<stop offset="0.26" stop-color="#00BEFF"/>
<stop offset="0.51" stop-color="#00D2FF"/>
<stop offset="0.76" stop-color="#00DFFF"/>
<stop offset="1" stop-color="#00E3FF"/>
</linearGradient>
<linearGradient id="paint1_linear" x1="23.6813" y1="13.9999" x2="6.74827" y2="13.9999" gradientUnits="userSpaceOnUse">
<stop stop-color="#FFE000"/>
<stop offset="0.41" stop-color="#FFBD00"/>
<stop offset="0.78" stop-color="#FFA500"/>
<stop offset="1" stop-color="#FF9C00"/>
</linearGradient>
<linearGradient id="paint2_linear" x1="17.3806" y1="15.61" x2="1.44862" y2="31.535" gradientUnits="userSpaceOnUse">
<stop stop-color="#FF3A44"/>
<stop offset="1" stop-color="#C31162"/>
</linearGradient>
<linearGradient id="paint3_linear" x1="5.10962" y1="0.12554" x2="12.2216" y2="7.23754" gradientUnits="userSpaceOnUse">
<stop stop-color="#32A071"/>
<stop offset="0.07" stop-color="#2DA771"/>
<stop offset="0.48" stop-color="#15CF74"/>
<stop offset="0.8" stop-color="#06E775"/>
<stop offset="1" stop-color="#00F076"/>
</linearGradient>
<clipPath id="clip0">
<rect width="94.5" height="28" fill="white"/>
</clipPath>
</defs>
</svg>
